# Blender 3.4.1
# www.blender.org
mtllib endingRoad.mtl
o LongRoad.001
v -15.000000 -0.200000 7.500000
v -15.000000 0.200000 7.500000
v -15.000000 -0.200000 -7.500000
v -15.000000 0.200000 -7.500000
v 15.000000 -0.200000 7.500000
v 15.000000 0.200000 7.500000
v 15.000000 -0.200000 -7.500000
v 15.000000 0.200000 -7.500000
v -15.000000 -0.500000 9.500001
v -15.000000 0.500000 9.500001
v -15.000000 -0.500000 7.500001
v -15.000000 0.500000 7.500001
v 15.000000 -0.500000 9.500001
v 15.000000 0.500000 9.500001
v 15.000000 -0.500000 7.500001
v 15.000000 0.500000 7.500001
v -14.999998 -0.500000 -7.500000
v -14.999998 0.500000 -7.500000
v -14.999998 -0.500000 -9.500000
v -14.999998 0.500000 -9.500000
v 15.000002 -0.500000 -7.500000
v 15.000002 0.500000 -7.500000
v 15.000002 -0.500000 -9.500000
v 15.000002 0.500000 -9.500000
v -14.999998 -0.500000 0.400000
v -14.999998 0.500000 0.400000
v -14.999998 -0.500000 -0.400000
v -14.999998 0.500000 -0.400000
v 15.000002 -0.500000 0.400000
v 15.000002 0.500000 0.400000
v 15.000002 -0.500000 -0.400000
v 15.000002 0.500000 -0.400000
v 13.000001 -0.500000 7.500001
v 13.000001 0.500000 7.500001
v 13.000001 -0.500000 -7.500000
v 13.000001 0.500000 -7.500000
v 15.000002 -0.500000 7.500001
v 15.000002 0.500000 7.500001
v 15.000002 -0.500000 -7.500000
v 15.000002 0.500000 -7.500000
vn -1.0000 -0.0000 -0.0000
vn -0.0000 -0.0000 -1.0000
vn 1.0000 -0.0000 -0.0000
vn -0.0000 -0.0000 1.0000
vn -0.0000 -1.0000 -0.0000
vn -0.0000 1.0000 -0.0000
vt 0.375000 0.000000
vt 0.375000 1.000000
vt 0.000100 0.000100
vt 0.625000 0.000000
vt 0.625000 1.000000
vt 0.499900 0.999900
vt 0.375000 0.250000
vt 0.499900 0.000100
vt 0.625000 0.250000
vt 0.499900 0.500100
vt 0.375000 0.750000
vt 0.000100 0.499900
vt 0.625000 0.750000
vt 0.000100 0.999900
vt 0.375000 0.500000
vt 0.499900 0.499900
vt 0.625000 0.500000
vt 0.000100 0.500100
vt 0.375000 0.000000
vt 0.375000 1.000000
vt 0.125000 0.750000
vt 0.625000 0.000000
vt 0.625000 1.000000
vt 0.875000 0.750000
vt 0.375000 0.250000
vt 0.125000 0.500000
vt 0.625000 0.250000
vt 0.875000 0.500000
vt 0.375000 0.750000
vt 0.625000 0.750000
vt 0.375000 0.500000
vt 0.625000 0.500000
vt 0.375000 0.000000
vt 0.375000 1.000000
vt 0.125000 0.750000
vt 0.625000 0.000000
vt 0.625000 1.000000
vt 0.875000 0.750000
vt 0.375000 0.250000
vt 0.125000 0.500000
vt 0.625000 0.250000
vt 0.875000 0.500000
vt 0.375000 0.750000
vt 0.625000 0.750000
vt 0.375000 0.500000
vt 0.625000 0.500000
vt 0.375000 0.000000
vt 0.375000 1.000000
vt 0.125000 0.750000
vt 0.625000 0.000000
vt 0.625000 1.000000
vt 0.875000 0.750000
vt 0.375000 0.250000
vt 0.125000 0.500000
vt 0.625000 0.250000
vt 0.875000 0.500000
vt 0.375000 0.750000
vt 0.625000 0.750000
vt 0.375000 0.500000
vt 0.625000 0.500000
vt 0.375000 0.000000
vt 0.375000 1.000000
vt 0.125000 0.750000
vt 0.625000 0.000000
vt 0.625000 1.000000
vt 0.875000 0.750000
vt 0.375000 0.250000
vt 0.125000 0.500000
vt 0.625000 0.250000
vt 0.875000 0.500000
vt 0.375000 0.750000
vt 0.625000 0.750000
vt 0.375000 0.500000
vt 0.625000 0.500000
s 0
f 1/1/1 2/4/1 4/9/1 3/7/1
f 3/7/2 4/9/2 8/17/2 7/15/2
f 7/15/3 8/17/3 6/13/3 5/11/3
f 5/11/4 6/13/4 2/5/4 1/2/4
f 3/8/5 7/16/5 5/12/5 1/3/5
f 8/18/6 4/10/6 2/6/6 6/14/6
f 9/19/1 10/22/1 12/27/1 11/25/1
f 11/25/2 12/27/2 16/32/2 15/31/2
f 15/31/3 16/32/3 14/30/3 13/29/3
f 13/29/4 14/30/4 10/23/4 9/20/4
f 11/26/5 15/31/5 13/29/5 9/21/5
f 16/32/6 12/28/6 10/24/6 14/30/6
f 17/33/1 18/36/1 20/41/1 19/39/1
f 19/39/2 20/41/2 24/46/2 23/45/2
f 23/45/3 24/46/3 22/44/3 21/43/3
f 21/43/4 22/44/4 18/37/4 17/34/4
f 19/40/5 23/45/5 21/43/5 17/35/5
f 24/46/6 20/42/6 18/38/6 22/44/6
f 25/47/1 26/50/1 28/55/1 27/53/1
f 27/53/2 28/55/2 32/60/2 31/59/2
f 31/59/3 32/60/3 30/58/3 29/57/3
f 29/57/4 30/58/4 26/51/4 25/48/4
f 27/54/5 31/59/5 29/57/5 25/49/5
f 32/60/6 28/56/6 26/52/6 30/58/6
f 33/61/1 34/64/1 36/69/1 35/67/1
f 35/67/2 36/69/2 40/74/2 39/73/2
f 39/73/3 40/74/3 38/72/3 37/71/3
f 37/71/4 38/72/4 34/65/4 33/62/4
f 35/68/5 39/73/5 37/71/5 33/63/5
f 40/74/6 36/70/6 34/66/6 38/72/6
