# Blender 3.4.1
# www.blender.org
mtllib Intersection.mtl
o Intersection
v -7.500000 -0.220000 7.500000
v -7.500000 0.220000 7.500000
v -7.500000 -0.220000 -7.500000
v -7.500000 0.220000 -7.500000
v 7.500000 -0.220000 7.500000
v 7.500000 0.220000 7.500000
v 7.500000 -0.220000 -7.500000
v 7.500000 0.220000 -7.500000
v 15.000000 0.220000 -7.500000
v 15.000000 -0.220000 -7.500000
v 15.000000 -0.220000 7.500000
v 15.000000 0.220000 7.500000
v -15.000000 -0.220000 -7.500000
v -15.000000 -0.220000 7.500000
v -15.000000 0.220000 7.500000
v -15.000000 0.220000 -7.500000
v -7.500000 0.220000 -15.000000
v -7.500000 -0.220000 -15.000000
v 7.500000 -0.220000 -15.000000
v 7.500000 0.220000 -15.000000
v -7.500000 -0.220000 15.000000
v -7.500000 0.220000 15.000000
v 7.500000 0.220000 15.000000
v 7.500000 -0.220000 15.000000
vn -0.0000 -0.0000 -1.0000
vn -1.0000 -0.0000 -0.0000
vn -0.0000 1.0000 -0.0000
vn 1.0000 -0.0000 -0.0000
vn -0.0000 -0.0000 1.0000
vn -0.0000 -1.0000 -0.0000
vt 0.625050 0.125050
vt 0.375000 1.000000
vt 0.374950 0.125050
vt 0.625000 1.000000
vt 0.375000 0.250000
vt 0.874950 0.125050
vt 0.625000 0.250000
vt 0.125050 0.125050
vt 0.625050 0.374950
vt 0.375000 0.750000
vt 0.374950 0.374950
vt 0.625000 0.750000
vt 0.874950 0.374950
vt 0.375000 0.500000
vt 0.125050 0.374950
vt 0.625000 0.500000
vt 0.125050 0.499900
vt 0.625000 0.500000
vt 0.375000 0.500000
vt 0.874950 0.499900
vt 0.375000 0.750000
vt 0.625050 0.499900
vt 0.374950 0.499900
vt 0.625000 0.750000
vt 0.874950 0.000100
vt 0.375000 0.250000
vt 0.625050 0.000100
vt 0.375000 0.000000
vt 0.375000 1.000000
vt 0.374950 0.000100
vt 0.625000 0.000000
vt 0.625000 1.000000
vt 0.125050 0.000100
vt 0.625000 0.250000
vt 0.000100 0.125050
vt 0.625000 0.250000
vt 0.999900 0.125050
vt 0.375000 0.250000
vt 0.999900 0.374950
vt 0.375000 0.500000
vt 0.000100 0.374950
vt 0.625000 0.500000
vt 0.500100 0.125050
vt 0.375000 1.000000
vt 0.499900 0.125050
vt 0.625000 1.000000
vt 0.499900 0.374950
vt 0.625000 0.750000
vt 0.500100 0.374950
vt 0.375000 0.750000
s 0
f 4/7/1 3/5/1 13/26/1 16/34/1
f 3/5/2 4/7/2 17/36/2 18/38/2
f 4/8/3 16/33/3 15/30/3 2/3/3 22/45/3 23/47/3 6/11/3 12/23/3 9/17/3 8/15/3 20/41/3 17/35/3
f 2/4/2 1/2/2 21/44/2 22/46/2
f 10/19/4 9/18/4 12/24/4 11/21/4
f 7/14/1 8/16/1 9/18/1 10/19/1
f 6/12/5 5/10/5 11/21/5 12/24/5
f 1/1/6 14/27/6 13/25/6 3/6/6 18/37/6 19/39/6 7/13/6 10/20/6 11/22/6 5/9/6 24/49/6 21/43/6
f 14/28/2 15/31/2 16/34/2 13/26/2
f 1/2/5 2/4/5 15/32/5 14/29/5
f 18/38/1 17/36/1 20/42/1 19/40/1
f 8/16/4 7/14/4 19/40/4 20/42/4
f 24/50/5 23/48/5 22/46/5 21/44/5
f 5/10/4 6/12/4 23/48/4 24/50/4
